<?xml version="1.0" encoding="utf-8"?>
<!-- Generator: Adobe Illustrator 26.5.0, SVG Export Plug-In . SVG Version: 6.00 Build 0)  -->
<svg version="1.1" id="Layer_1" xmlns="http://www.w3.org/2000/svg" xmlns:xlink="http://www.w3.org/1999/xlink" x="0px" y="0px"
	 viewBox="0 0 1490.4 549.1" style="enable-background:new 0 0 1490.4 549.1;" xml:space="preserve">
<style type="text/css">
	.st0{fill:#FFFFFF;}
</style>
<g id="Layer_9">
	<g>
		<path class="st0" d="M537.2,344.8h-31.8l-30.6-49.7l-30.6,49.8h-29.9l43.6-67.8l-40.7-63.8h30.7l28.3,47.2l27.8-47.2h30
			l-41.2,65.2L537.2,344.8z"/>
		<path class="st0" d="M605.7,344.8L574,241.7h-0.8c1.2,20.9,1.7,34.9,1.7,42v61.1H550V213.4h38l31.1,100.5h0.5l33-100.5h38v131.4
			h-26v-62.2c0-2.9,0-6.3,0.1-10.2c0.1-3.8,0.5-14,1.3-30.6h-0.8l-33.9,102.9h-25.6L605.7,344.8L605.7,344.8z"/>
		<path class="st0" d="M800.5,344.8l-9.6-31.3H743l-9.6,31.3h-30l46.4-131.9H784l46.6,131.9H800.5z M784.3,290.2
			c-8.8-28.3-13.8-44.4-14.8-48.1c-1.2-3.7-1.9-6.6-2.4-8.8c-2,7.7-7.7,26.6-16.9,56.9H784.3z"/>
		<path class="st0" d="M934.6,254.4c0,14.1-4.4,24.9-13.3,32.4c-8.8,7.5-21.5,11.3-37.7,11.3h-12v46.7h-27.9V213.4h42
			c16,0,28.1,3.5,36.4,10.3S934.6,240.9,934.6,254.4z M871.7,275.3h9.2c8.5,0,14.9-1.7,19.3-5.1c4.2-3.4,6.4-8.3,6.4-14.8
			s-1.8-11.4-5.4-14.5c-3.6-3.2-9.2-4.6-16.7-4.6h-12.6v39H871.7z"/>
		<path class="st0" d="M1069.6,279c0,21.8-5.4,38.5-16.2,50.2c-10.8,11.7-26.3,17.6-46.4,17.6s-35.6-5.9-46.4-17.6
			c-10.8-11.7-16.2-28.5-16.2-50.4s5.4-38.6,16.2-50.1c10.8-11.6,26.3-17.3,46.5-17.3c20.2,0,35.7,5.8,46.3,17.5
			C1064.3,240.4,1069.6,257.2,1069.6,279z M973.7,279c0,14.7,2.7,25.8,8.3,33.1c5.6,7.5,13.9,11.2,25,11.2
			c22.2,0,33.4-14.7,33.4-44.3c0-29.6-11-44.4-33.1-44.4c-11,0-19.5,3.7-25,11.2C976.5,253.2,973.7,264.3,973.7,279z"/>
		<path class="st0" d="M1190.2,344.8h-27.9v-50.7c-9.3,3.2-16.9,5.3-23,6.4c-6.1,1.2-12,1.7-17.6,1.7c-12.5,0-22.2-3.1-29-9
			c-6.8-6-10.2-14.5-10.2-25.4v-54.3h27.8v46.4c0,6.3,1.5,11.2,4.4,14.3c2.9,3.2,7.9,4.8,14.9,4.8c4.9,0,9.8-0.5,14.7-1.5
			c4.8-0.9,10.9-2.7,18-5.2v-58.9h27.9L1190.2,344.8L1190.2,344.8z"/>
		<path class="st0" d="M1329.4,279c0,21.8-5.4,38.5-16.2,50.2c-10.8,11.7-26.3,17.6-46.4,17.6s-35.6-5.9-46.4-17.6
			s-16.2-28.5-16.2-50.4s5.4-38.6,16.2-50.1c10.8-11.6,26.3-17.3,46.5-17.3s35.7,5.8,46.3,17.5
			C1324.1,240.4,1329.4,257.2,1329.4,279z M1233.5,279c0,14.7,2.7,25.8,8.3,33.1c5.6,7.5,13.9,11.2,25,11.2
			c22.2,0,33.4-14.7,33.4-44.3c0-29.6-11-44.4-33.1-44.4c-11,0-19.5,3.7-25,11.2C1236.3,253.2,1233.5,264.3,1233.5,279z"/>
		<path class="st0" d="M1403.3,234.8c-10.5,0-18.6,3.9-24.4,11.8c-5.8,7.9-8.6,18.8-8.6,32.9c0,29.4,11,44,33,44
			c9.3,0,20.4-2.3,33.6-6.9V340c-10.8,4.5-22.8,6.7-36.2,6.7c-19.1,0-33.8-5.8-43.9-17.4s-15.2-28.2-15.2-50
			c0-13.7,2.5-25.7,7.5-35.9c4.9-10.3,12.1-18.2,21.5-23.7s20.2-8.2,32.7-8.2c12.7,0,25.6,3.1,38.5,9.3l-8.9,22.6
			c-4.9-2.3-9.9-4.4-14.8-6.1C1413,235.6,1408,234.8,1403.3,234.8z"/>
	</g>
</g>
<g id="Layer_8">
	<path class="st0" d="M349.8,161.6c0-0.1,0-0.1,0-0.2c0-0.2-0.1-0.4-0.2-0.6c0-0.1,0-0.1-0.1-0.2c-0.1-0.2-0.2-0.5-0.3-0.7l0,0
		c0,0,0,0-0.1-0.1s-0.2-0.2-0.3-0.4L329.1,137c-0.6-0.7-1.3-1-2.1-1.2l-53.8-9.9l2-13.4l0,0c0-0.2,0-0.5,0-0.7c0-0.1,0-0.1,0-0.2
		c0-0.2,0-0.4-0.1-0.5c0-0.1,0-0.1-0.1-0.2c-0.1-0.2-0.1-0.4-0.2-0.6v-0.1c-0.1-0.2-0.2-0.4-0.4-0.6c0,0,0,0,0-0.1l-0.1-0.1
		c-0.1-0.1-0.1-0.2-0.2-0.3L248.9,84c-0.6-0.6-1.3-0.9-2.1-1l-89.2-12.2c-0.9-0.1-1.8,0.1-2.6,0.6l-34.3,22.9
		c-0.2,0.2-0.4,0.3-0.6,0.5c0,0,0,0-0.1,0.1c0,0,0,0.1-0.1,0.1c-0.2,0.2-0.3,0.4-0.4,0.6c0,0,0,0,0,0.1c-0.1,0.2-0.2,0.5-0.3,0.7
		c0,0.1,0,0.1-0.1,0.2c-0.1,0.2-0.1,0.5-0.1,0.7v0.1c0,0.3,0,0.5,0,0.7v0.1l5.8,38.5L58.7,148c-1.4,0.3-2.5,1.2-2.9,2.5l-7.4,23.8
		c-0.1,0.2-0.1,0.4-0.1,0.6v0.1c0,0.3,0,0.5,0,0.7c0,0,0,0,0,0.1c0,0.3,0.1,0.5,0.2,0.7c0,0,0,0,0,0.1L75,261.3
		c-14.3,22.8-22.6,49.7-22.6,78.5c0,60.9,37,113.3,89.7,135.8c1.5,0.7,3,1.2,4.5,1.9c7.3,2.8,14.8,5.1,22.5,6.8
		c2.8,0.6,5.6,1.1,8.4,1.6c1.3,0.2,2.5,0.4,3.8,0.6s2.5,0.3,3.8,0.5c1.5,0.2,2.9,0.3,4.4,0.4c3.4,0.3,7,0.4,10.5,0.4
		c2.3,0,4.7-0.1,7.1-0.2c1.3-0.1,2.5-0.1,3.8-0.2c0.7-0.1,1.6-0.1,2.3-0.2c0.5,0,1-0.1,1.5-0.1c0.7-0.1,1.6-0.2,2.3-0.3
		c1.3-0.2,2.6-0.3,3.8-0.5c11.8-1.7,23.2-4.7,33.9-9c1.5-0.6,2.9-1.2,4.4-1.9c1.5-0.7,3-1.3,4.5-2c49.7-23.8,84.2-74.6,84.2-133.2
		c0-30-9-58-24.5-81.5l26.5-95.6V163c0.1-0.2,0.1-0.4,0.1-0.6v-0.1C349.8,162,349.8,161.8,349.8,161.6z M272.1,130.6l53.2,9.6
		l11.4,16.9l-66.8-9L272.1,130.6z M298.7,159.4l-62.3,315.8c-2.5,0.7-5,1.3-7.5,1.8l52.6-319.9L298.7,159.4z M302.4,160l18.1,2.4
		L246,472.3c-2.5,0.8-4.9,1.7-7.5,2.3L302.4,160z M158.9,75.8l85.6,11.8l16.9,19.7L133.5,94.9L158.9,75.8z M267.2,115.5l-1.4,9.3
		l-0.6,3.7l-0.6,3.7l-0.9,6.2l-133-12.7l-3.6-23.9L267.2,115.5z M240.1,301.6l-84.6-11.5l-2.7-17.7l89.8,11.6L240.1,301.6z
		 M215.2,472.9l-33.5-8.7l-2-13.3L217,461L215.2,472.9z M217.3,458.2l-38-10.3l-1.7-11.3l41.5,10.3L217.3,458.2z M219.6,443
		L177,432.4l-1.8-11.9l46.1,10.7L219.6,443z M222.6,421.6l-0.8,6l-47.2-10.9l-1.7-11.4l-0.1-0.4l50.7,11.1L222.6,421.6z
		 M224.1,411.3l-52-11.3l-1.5-10.1l55.1,11.1L224.1,411.3z M226.4,396.3L169.8,385l-1.8-11.6l60.1,10.8L226.4,396.3z M228.8,379.5
		l-61.5-11.1l-2-13.3l65.5,10.9L228.8,379.5z M231.6,360.6l-67.1-11.2l-2-13.9l71.2,11.2L231.6,360.6z M234.4,341.1l-72.9-11.3
		l-2-12.9l76.7,11.4L234.4,341.1z M237.1,322.8l-78.4-11.7l-2.1-14.2l82.7,11.3L237.1,322.8z M243.6,277.7l-91.8-11.9l-3.1-20.6
		l97.9,11.5L243.6,277.7z M247.8,249.3l-100.1-11.8l-2.9-19.4l105.9,11.6L247.8,249.3z M254.5,202.5l-0.6,3.7l-0.6,3.8l-1.8,12.4
		l-108-11.9l-0.5-3l-0.6-3.8l-2-13.6l114.2,11.7L254.5,202.5z M255.7,194.6l-116.3-12l-2-13.8l0,0l-0.6-3.7l-0.6-3.7l0,0v-0.2
		l122.6,12.1L255.7,194.6z M262.5,147.1L262.5,147.1l-0.6,3.7l-0.6,3.7l-1.7,11.5L135,153.8l-1.7-11l-0.6-3.7l-0.6-3.7l-0.3-2.1
		l130.9,12.5L262.5,147.1z M61.4,152.2l64.6-11l2.8,21.2l-66.7,8.1l-4.9,0.6L61.4,152.2z M93.6,174.2l68,300.6
		c-1.8-0.6-4.5-1.5-6.1-2L76.7,176.3L93.6,174.2z M97.3,173.8l16.4-2l56.6,305.5c-1.9-0.5-4.6-1.2-6.6-2L97.3,173.8z M59.8,339.8
		c0-25,6.6-48.5,18.1-68.9l65,198.1C95.9,446.2,59.8,395.3,59.8,339.8z M83.1,262.5l-1.5-4.6l-1.4-4.4l-23.4-74.8l16.1-2L153.1,472
		c-1.7-0.6-3.3-1.2-5-1.9L83.1,262.5z M172.2,477.5l-55-306.3l12.6-1.5l5.6,37.2l0.6,3.8l0.6,3.9L180,478.7
		C178.1,478.5,174.2,478,172.2,477.5z M214.3,479.3c-0.8,0.1-1.7,0.2-2.5,0.2c-1.3,0.1-2.5,0.2-3.8,0.3c-2.6,0.2-5.3,0.3-8,0.3
		c-3.6,0-7.3-0.2-10.9-0.5c-1.3-0.1-2.5-0.2-3.8-0.4c-0.5-0.1-0.9-0.1-1.4-0.2l-1.8-12l32.6,8.6L214.3,479.3z M246.5,309.1
		L246.5,309.1l0.9-6l13-89.7l0.6-3.9l0.6-3.8l7.3-50.1l8.9,1.2l-51,320.8c-1.7,0.3-6.6,1.3-8.3,1.6L246.5,309.1z M340.3,339.8
		c0,53.4-32.7,102.7-76.8,126.4l57-198.1C333,289.1,340.3,313.6,340.3,339.8z M317.7,250.6l-1.2,4.5l-1.3,4.6l-57.7,208.1
		c-3,1.3-6,2.6-9.1,3.7l76.1-308.6l17,2.3L317.7,250.6z"/>
</g>
</svg>
